<mxfile host="app.diagrams.net" modified="2024-01-19T11:53:12.031Z" agent="Mozilla/5.0 (X11; Linux x86_64) AppleWebKit/537.36 (KHTML, like Gecko) Chrome/115.0.0.0 Safari/537.36" etag="GgLvhKSTfBnT2J8G0Exd" version="22.1.21" type="github">
  <diagram name="Trang-1" id="UrGIFxLRBhrkzGX-1ycr">
    <mxGraphModel dx="1364" dy="803" grid="1" gridSize="10" guides="1" tooltips="1" connect="1" arrows="1" fold="1" page="1" pageScale="1" pageWidth="827" pageHeight="1169" math="0" shadow="0">
      <root>
        <mxCell id="0" />
        <mxCell id="1" parent="0" />
        <mxCell id="PLU16x45Wvkr3cI6VrNJ-7" style="edgeStyle=orthogonalEdgeStyle;rounded=0;orthogonalLoop=1;jettySize=auto;html=1;entryX=0;entryY=0.5;entryDx=0;entryDy=0;" edge="1" parent="1" source="PLU16x45Wvkr3cI6VrNJ-8" target="PLU16x45Wvkr3cI6VrNJ-5">
          <mxGeometry relative="1" as="geometry" />
        </mxCell>
        <mxCell id="PLU16x45Wvkr3cI6VrNJ-1" value="Section X" style="rounded=0;whiteSpace=wrap;html=1;" vertex="1" parent="1">
          <mxGeometry x="100" y="180" width="120" height="60" as="geometry" />
        </mxCell>
        <mxCell id="PLU16x45Wvkr3cI6VrNJ-20" style="edgeStyle=orthogonalEdgeStyle;rounded=0;orthogonalLoop=1;jettySize=auto;html=1;entryX=0;entryY=0.5;entryDx=0;entryDy=0;" edge="1" parent="1" source="PLU16x45Wvkr3cI6VrNJ-3" target="PLU16x45Wvkr3cI6VrNJ-4">
          <mxGeometry relative="1" as="geometry" />
        </mxCell>
        <mxCell id="PLU16x45Wvkr3cI6VrNJ-3" value="Previous Result from previous section" style="rounded=0;whiteSpace=wrap;html=1;" vertex="1" parent="1">
          <mxGeometry x="120" y="340" width="120" height="60" as="geometry" />
        </mxCell>
        <mxCell id="PLU16x45Wvkr3cI6VrNJ-19" style="edgeStyle=orthogonalEdgeStyle;rounded=0;orthogonalLoop=1;jettySize=auto;html=1;entryX=0.5;entryY=0;entryDx=0;entryDy=0;" edge="1" parent="1" source="PLU16x45Wvkr3cI6VrNJ-4" target="PLU16x45Wvkr3cI6VrNJ-18">
          <mxGeometry relative="1" as="geometry" />
        </mxCell>
        <mxCell id="PLU16x45Wvkr3cI6VrNJ-4" value="Prompt" style="rounded=0;whiteSpace=wrap;html=1;" vertex="1" parent="1">
          <mxGeometry x="370" y="340" width="120" height="60" as="geometry" />
        </mxCell>
        <mxCell id="PLU16x45Wvkr3cI6VrNJ-6" value="" style="edgeStyle=orthogonalEdgeStyle;rounded=0;orthogonalLoop=1;jettySize=auto;html=1;" edge="1" parent="1" source="PLU16x45Wvkr3cI6VrNJ-5" target="PLU16x45Wvkr3cI6VrNJ-4">
          <mxGeometry relative="1" as="geometry" />
        </mxCell>
        <mxCell id="PLU16x45Wvkr3cI6VrNJ-5" value="Summary" style="rounded=1;whiteSpace=wrap;html=1;" vertex="1" parent="1">
          <mxGeometry x="414" y="160" width="120" height="60" as="geometry" />
        </mxCell>
        <mxCell id="PLU16x45Wvkr3cI6VrNJ-9" value="" style="edgeStyle=orthogonalEdgeStyle;rounded=0;orthogonalLoop=1;jettySize=auto;html=1;entryX=0;entryY=0.5;entryDx=0;entryDy=0;" edge="1" parent="1" source="PLU16x45Wvkr3cI6VrNJ-1" target="PLU16x45Wvkr3cI6VrNJ-8">
          <mxGeometry relative="1" as="geometry">
            <mxPoint x="220" y="210" as="sourcePoint" />
            <mxPoint x="414" y="190" as="targetPoint" />
          </mxGeometry>
        </mxCell>
        <mxCell id="PLU16x45Wvkr3cI6VrNJ-8" value="LLMs" style="ellipse;whiteSpace=wrap;html=1;aspect=fixed;" vertex="1" parent="1">
          <mxGeometry x="270" y="160" width="80" height="80" as="geometry" />
        </mxCell>
        <mxCell id="PLU16x45Wvkr3cI6VrNJ-13" value="Attributes" style="rounded=0;whiteSpace=wrap;html=1;" vertex="1" parent="1">
          <mxGeometry x="580" y="160" width="120" height="60" as="geometry" />
        </mxCell>
        <mxCell id="PLU16x45Wvkr3cI6VrNJ-17" style="edgeStyle=orthogonalEdgeStyle;rounded=0;orthogonalLoop=1;jettySize=auto;html=1;entryX=0.75;entryY=0;entryDx=0;entryDy=0;" edge="1" parent="1" source="PLU16x45Wvkr3cI6VrNJ-13" target="PLU16x45Wvkr3cI6VrNJ-4">
          <mxGeometry relative="1" as="geometry">
            <mxPoint x="490" y="315" as="targetPoint" />
            <Array as="points">
              <mxPoint x="640" y="240" />
              <mxPoint x="499" y="240" />
              <mxPoint x="499" y="315" />
              <mxPoint x="460" y="315" />
            </Array>
          </mxGeometry>
        </mxCell>
        <mxCell id="PLU16x45Wvkr3cI6VrNJ-18" value="Final Answer" style="rounded=0;whiteSpace=wrap;html=1;" vertex="1" parent="1">
          <mxGeometry x="370" y="440" width="120" height="60" as="geometry" />
        </mxCell>
      </root>
    </mxGraphModel>
  </diagram>
</mxfile>
